Coordinates
version=1
nRows=8
nColumns=40
inDegrees=yes

Units are S.I. units (second, meters, Newtons, ...)
Angles are in degrees.

endheader
time	pelvis_tilt	pelvis_list	pelvis_rotation	pelvis_tx	pelvis_ty	pelvis_tz	hip_flexion_r	hip_adduction_r	hip_rotation_r	knee_angle_r	knee_angle_r_beta	ankle_angle_r	subtalar_angle_r	mtp_angle_r	hip_flexion_l	hip_adduction_l	hip_rotation_l	knee_angle_l	knee_angle_l_beta	ankle_angle_l	subtalar_angle_l	mtp_angle_l	lumbar_extension	lumbar_bending	lumbar_rotation	arm_flex_r	arm_add_r	arm_rot_r	elbow_flex_r	pro_sup_r	wrist_flex_r	wrist_dev_r	arm_flex_l	arm_add_l	arm_rot_l	elbow_flex_l	pro_sup_l	wrist_flex_l	wrist_dev_l
     11.00000000	     -4.39852567	     -4.22390336	     -3.12317415	      1.03355736	      0.93162976	      0.41790439	     24.58389254	     -2.46086116	    -13.81017953	      8.53845125	      8.53845125	      1.43852614	     11.68951916	      9.93388801	      7.83924370	     -4.76885138	    -12.39697365	     17.94536074	     17.94536074	     15.32789070	     -6.96095051	     -4.28921751	    -10.02746925	      2.49723556	      0.15679311	      0.66629980	    -14.18729714	     -9.11125001	     30.50293059	     46.79140254	      0.00000000	      0.00000000	      8.80492993	    -20.01851074	     -0.30983051	     59.82617100	     45.57909719	      0.00000000	      0.00000000
     11.01371429	     -4.22510319	     -4.01202253	     -3.00469101	      1.03462894	      0.93124376	      0.41921980	     24.06187025	     -2.60823713	    -13.23484048	      9.47239946	      9.47239946	      0.73316515	     10.35164331	      6.41743111	      7.18163339	     -4.82379034	    -13.47674265	     18.05291644	     18.05291644	     16.40695480	     -4.76245218	     -3.55030103	     -9.96361076	      2.27759517	      0.37703752	     -0.43287485	    -14.20633895	     -9.58667148	     34.10157626	     46.61692187	      0.00000000	      0.00000000	      9.30990466	    -20.12610552	      0.33345287	     59.12259298	     45.62160631	      0.00000000	      0.00000000
     11.02742857	     -4.05307817	     -3.82684474	     -2.71744844	      1.03568278	      0.93095341	      0.42022923	     23.50076063	     -2.88125748	    -13.14326757	     10.64175915	     10.64175915	      0.92075382	      9.66682421	      5.88303817	      6.46831804	     -4.65525911	    -13.40168096	     17.85397381	     17.85397381	     16.69722215	     -4.44208528	     -3.50182614	     -9.89654617	      2.06981850	      0.17883760	     -0.12325047	    -14.12529157	     -9.60683285	     34.56316212	     46.59615612	      0.00000000	      0.00000000	      9.43659730	    -20.13036281	      0.42603105	     58.96140883	     45.62482048	      0.00000000	      0.00000000
     11.04114286	     -3.88743838	     -3.60343104	     -2.36697090	      1.03690325	      0.93054092	      0.42131113	     22.94191875	     -3.18970369	    -12.81932880	     11.90898515	     11.90898515	      1.16857600	      8.78834429	      5.21470108	      5.77849735	     -4.48342724	    -13.36273756	     17.69781155	     17.69781155	     16.99547658	     -3.92203783	     -3.48964014	     -9.76316899	      1.83931230	     -0.09824150	      0.15179397	    -14.06847771	     -9.65099753	     35.25924970	     46.56714546	      0.00000000	      0.00000000	      9.48372415	    -20.10424695	      0.47209200	     58.75609083	     45.62998381	      0.00000000	      0.00000000
     11.05485714	     -3.78381735	     -3.34155338	     -2.03047927	      1.03830340	      0.92985213	      0.42263983	     22.30920474	     -3.39968447	    -11.99168379	     12.79133899	     12.79133899	      0.55718114	      7.30630602	      2.00841596	      5.24946197	     -4.41746410	    -13.77897053	     17.84139033	     17.84139033	     17.87781827	     -2.50228506	     -2.72123762	     -9.58727317	      1.58886797	      0.15148549	     -1.08140775	    -14.30614693	     -9.61086133	     39.29706870	     46.33882587	      0.00000000	      0.00000000	      9.84828416	    -19.80137935	      0.41209594	     58.18213804	     45.74596770	      0.00000000	      0.00000000
     11.06857143	     -3.59497338	     -3.18162576	     -1.65354211	      1.03978212	      0.92945342	      0.42400022	     21.67835874	     -3.58849219	    -11.60207955	     13.86332061	     13.86332061	      1.01749941	      6.65587622	      1.63359828	      4.52745110	     -4.34354095	    -13.67879093	     17.70800308	     17.70800308	     18.14691188	     -2.08416107	     -2.77336202	     -9.47066032	      1.43194481	     -0.06558186	     -0.64030163	    -14.35553579	     -9.65342289	     39.91231190	     46.31504875	      0.00000000	      0.00000000	      9.76378461	    -19.82753454	      0.41430852	     57.94116949	     45.75317384	      0.00000000	      0.00000000
     11.08228571	     -3.47146015	     -2.96605319	     -1.28601635	      1.04123640	      0.92905051	      0.42548488	     21.17222476	     -3.78203028	    -11.05154875	     14.83036677	     14.83036677	      1.51501848	      5.77829171	      1.22992525	      3.85186706	     -4.24235107	    -13.72553823	     17.52565291	     17.52565291	     18.39018638	     -1.44062871	     -2.78436454	     -9.26919269	      1.21914388	     -0.32378503	     -0.35213087	    -14.43045585	     -9.70959043	     41.13722128	     46.26491270	      0.00000000	      0.00000000	      9.54680573	    -19.78908576	      0.22141384	     57.61243306	     45.77867587	      0.00000000	      0.00000000
     11.09600000	     -3.33965200	     -2.95619021	     -0.91978435	      1.04273672	      0.92877535	      0.42722217	     20.58013343	     -3.67323457	    -10.44191932	     15.44897201	     15.44897201	      1.88212213	      4.70546118	      0.67220725	      3.28601438	     -4.46803531	    -13.91047274	     17.62935249	     17.62935249	     18.83206285	     -0.50998640	     -2.61118407	     -9.16875576	      1.27532580	     -0.24025447	     -1.01761738	    -14.82833057	     -9.59887625	     44.73229120	     46.09214511	      0.00000000	      0.00000000	      9.44917158	    -19.22997552	     -0.87674004	     57.24519182	     45.91566369	      0.00000000	      0.00000000
